<?xml version="1.0" encoding="utf-8"?>
<!-- Generator: Adobe Illustrator 21.1.0, SVG Export Plug-In . SVG Version: 6.00 Build 0)  -->
<svg version="1.1" xmlns="http://www.w3.org/2000/svg" xmlns:xlink="http://www.w3.org/1999/xlink" x="0px" y="0px"
	 viewBox="0 0 792 612" style="enable-background:new 0 0 792 612;" xml:space="preserve">
<style type="text/css">
	.st0{fill:#808285;stroke:#000000;stroke-miterlimit:10;}
	.st1{stroke:#000000;stroke-miterlimit:10;}
	.st2{display:none;}
	.st3{display:inline;fill:none;stroke:#000000;stroke-miterlimit:10;}
	.st4{display:inline;stroke:#000000;stroke-miterlimit:10;}
	.st5{display:inline;fill:#BCBEC0;}
</style>
<g id="Layer_1">
	<path class="st0" d="M574.2,245.3"/>
	<path class="st0" d="M200.2,273"/>
	<path class="st0" d="M194.5,263.7"/>
	<path class="st0" d="M200.6,273.7c-10.8-16-20.1-43-17.4-62.2c2.6-18.4,12.3-34.9,24.8-48.2c24.6-26.3,59.2-41.4,93.5-50.3
		c40.5-10.5,83.1-12.4,124.5-6.5c37.8,5.4,75.7,17.3,106.8,40c26.8,19.6,48.7,50.5,44.3,85.2l-0.1,1c-0.8,14.2-3.3,36.1-3.3,36.1
		C571,284,573,302,560,314c-3,4-2,11,4,12c2,0,4,0,5,1c4,6,10,12,6,19s-14,9-19,17c0,10-4,20-5,30c-2,11-4,22-11,32
		c-11,17-23,30-34,47c-17,24-29,46-46,70c-2,2-3,5-6,7c-2,1-5,2-7,3c-14,2-18-13-27-20c-2-1-4-3-6-4c-4-2-8-3-13-4
		c-19-4-31,10-44,22c-3,2-7,4-10,4c-21-1-35-20-46-38c-21-32-40-60-63-92c-1-2-3-4-3-7c-1-16-2-32-4-49c-1-8-9-12-14-18
		c-5-7,4-12,7-18c1-2,3-3,5-4c1-2,2-4,1-6C220,303,210,289,200.6,273.7"/>
	<path class="st0" d="M201.7,275.3"/>
	<path class="st0" d="M199.6,272.1"/>
	<path class="st0" d="M197.4,268.3"/>
	<path class="st0" d="M195.9,265.5"/>
	<ellipse transform="matrix(0.9841 -0.1774 0.1774 0.9841 -51.1619 61.8704)" class="st1" cx="320.4" cy="317" rx="46" ry="34.2"/>
	
		<ellipse transform="matrix(9.629541e-02 -0.9954 0.9954 9.629541e-02 105.0471 749.7236)" class="st1" cx="465.4" cy="317" rx="33.2" ry="48.8"/>
	<path class="st0" d="M388.5,344L362,398.7c0,0-3.5,24.8,10.5,9.3s7.6-9.3,7.6-9.3l8.4,8.3c0,0,12.5,16,11.5-3S388.5,344,388.5,344z
		"/>
	<path class="st0" d="M320.4,441"/>
	<path class="st0" d="M329.5,441"/>
	<path class="st0" d="M329.5,441"/>
	<path class="st0" d="M337.5,441"/>
	<path class="st0" d="M347,441"/>
	<path class="st0" d="M337.5,441"/>
	<path class="st0" d="M428.4,435.5"/>
	<path class="st0" d="M428.4,450"/>
	<path class="st0" d="M320.4,461.5"/>
	<path class="st0" d="M324.9,470.5"/>
	<path class="st0" d="M359.5,461.5"/>
	<path class="st0" d="M347,461.5"/>
	<path class="st0" d="M320.4,490"/>
	<path class="st0" d="M320.4,461.5v-29L312,408c5-14.5-33-9.3-33-9.3c-15.5,34.2,23.5,57.3,23.5,57.3S302.5,456,320.4,461.5z"/>
	<path class="st0" d="M231,364"/>
	<path class="st0" d="M431.9,490"/>
	<path class="st0" d="M465.4,396.5c-38.6-9-37,11-37,11v28l3.5,26"/>
	<path class="st0" d="M556,363"/>
	<path class="st0" d="M431.9,461.5c0,0,32.4-15.5,33.5-65"/>
	<path class="st0" d="M228.5,298"/>
</g>
<g id="Layer_2" class="st2">
	<path class="st3" d="M241.2,207"/>
	<line class="st3" x1="240.6" y1="206.1" x2="242.7" y2="209.3"/>
	<ellipse class="st3" cx="365.9" cy="375" rx="4.6" ry="8.5"/>
	<ellipse class="st3" cx="374.5" cy="375" rx="4" ry="8.5"/>
	<ellipse class="st3" cx="383.2" cy="375" rx="4.8" ry="8.5"/>
	<ellipse class="st3" cx="391.8" cy="376.8" rx="3.8" ry="6.8"/>
	<circle class="st3" cx="402.8" cy="376.8" r="6.8"/>
	<ellipse class="st3" cx="414.5" cy="376.8" rx="5" ry="8.2"/>
	<ellipse class="st3" cx="424.5" cy="376.8" rx="3.8" ry="7"/>
	<ellipse class="st3" cx="435.8" cy="376.8" rx="4.8" ry="9.8"/>
	<ellipse class="st3" cx="445.1" cy="376.8" rx="3.8" ry="8.5"/>
	<ellipse class="st3" cx="452.4" cy="376.8" rx="3.5" ry="8.5"/>
	<ellipse class="st3" cx="460.1" cy="376.8" rx="4.2" ry="8.5"/>
	<ellipse class="st3" cx="469.4" cy="376.8" rx="3.5" ry="7.2"/>
	<ellipse class="st3" cx="365.9" cy="395.5" rx="4.6" ry="9"/>
	<ellipse class="st3" cx="374.5" cy="395.5" rx="4" ry="9"/>
	<ellipse class="st3" cx="383.2" cy="395.5" rx="4.8" ry="9"/>
	<ellipse class="st3" cx="394.2" cy="395.5" rx="6.2" ry="9"/>
	<ellipse class="st3" cx="405" cy="395.5" rx="6.5" ry="9"/>
	<ellipse class="st3" cx="414.5" cy="395.5" rx="5" ry="9"/>
	<ellipse class="st3" cx="423.9" cy="395.5" rx="4.4" ry="9"/>
	<ellipse class="st3" cx="434.7" cy="395.5" rx="6.4" ry="9"/>
	<ellipse class="st3" cx="444.7" cy="394.9" rx="4.2" ry="9.6"/>
	<ellipse class="st3" cx="452.4" cy="395.5" rx="3.5" ry="9"/>
	<ellipse class="st3" cx="460.1" cy="395.5" rx="4.2" ry="9"/>
	<ellipse class="st3" cx="468.6" cy="395.5" rx="4.2" ry="9"/>
	<path class="st4" d="M361.4,395.5"/>
	<path class="st4" d="M344.5,387.8"/>
	<path class="st5" d="M548.9,83.2c-31.1-22.7-69.1-34.6-106.8-40c-41.4-5.9-84-4-124.5,6.5c-34.3,8.9-68.9,24-93.5,50.3
		c-12.5,13.4-22.2,29.9-24.8,48.2c-2.7,19.2-0.1,35.1,10.7,51.1l6.8,11.1c9.4,15.3,19.4,29.3,29.4,44.3c1,2,0,4-1,6c-2,1-4,2-5,4
		c-3,6-12,11-7,18c5,6,13,10,14,18c2,17,3,33,4,49c0,3,2,5,3,7c23,32,42,60,63,92c11,18,25,37,46,38c3,0,7-2,10-4c13-12,25-26,44-22
		c5,1,9,2,13,4c2,1,4,3,6,4c9,7,13,22,27,20c2-1,5-2,7-3c3-2,4-5,6-7c17-24,29-46,46-70c11-17,23-30,34-47c7-10,9-21,11-32
		c1-10,5-20,5-30c5-8,15-10,19-17s-2-13-6-19c-1-1-3-1-5-1c-6-1-7-8-4-12c13-12,11-30,13.7-45.2c0,0,0,0,0.8-14.2
		c0.2-3.1-0.1-6.2-0.3-9.3l-0.2,0.3c1.5-4.5,2.5-9.2,3.1-13.9C597.6,133.7,575.7,102.7,548.9,83.2z M336.4,398.2v26.5l-9.7-17.5
		l-3-19.2c-17.6-10.5-40.1-27.2-28.7-52.5c0,0,38-5.2,33,9.3l8.4,24.5V398.2z M343,287.4c-25,4.5-48-6.9-51.3-25.5
		c-3.4-18.6,14.2-37.4,39.2-41.9c25-4.5,48,6.9,51.3,25.5C385.5,264.1,368,282.9,343,287.4z M404.5,343.7l-8.1-8
		c-1.2,1.5-3.6,4.2-7.9,9c-14,15.5-10.5-9.3-10.5-9.3l26.5-54.7c0,0,10.5,41,11.5,60S404.5,343.7,404.5,343.7z M460.6,389.3l-3,19.2
		l-9.7,17.5v-26.5v-29l8.4-24.5c-5-14.5,33-9.3,33-9.3C500.8,362.1,478.2,378.8,460.6,389.3z M530.4,258.4
		c-1.8,18.3-24.9,31-51.7,28.4c-26.8-2.6-47.1-19.5-45.3-37.8s24.9-31,51.7-28.4S532.2,240.1,530.4,258.4z"/>
	<path class="st3" d="M272,298"/>
	<path class="st3" d="M269.5,232"/>
</g>
</svg>
